<?xml version="1.0" encoding="UTF-8"?>
<svg id="Layer_2" data-name="Layer 2" xmlns="http://www.w3.org/2000/svg" viewBox="0 0 585.52 191.34">
  <g id="Layer_1-2" data-name="Layer 1">
    <g>
      <path
        d="M0,143.6V47.83C27.6,31.91,55.25,15.98,82.97,0c27.71,15.97,55.36,31.92,82.99,47.84v95.54c-1.28.98-81.02,47-83.12,47.96-27.52-15.86-55.12-31.77-82.83-47.75ZM82.99,104.49c-.72-.41-1.24-.69-1.75-.99-16.61-9.56-33.21-19.13-49.82-28.7-7.36-4.24-14.71-8.5-22.08-12.72-.53-.3-1-.87-1.74-.67-.24,5.4-.13,76.05.14,77.87,4.14,2.36,8.37,4.77,12.6,7.18.05.03.13.03.19.02.06-.01.12-.05.31-.14,0-.58,0-1.22,0-1.86,0-9.62,0-19.24,0-28.87,0-8.44,0-16.87,0-25.31,0-.63-.18-1.31.28-1.99,1.68,0,3.39.07,5.1-.02,1.51-.08,2.79.32,4.1,1.08,16.93,9.8,33.88,19.56,50.82,29.32.62.36,1.25.68,1.86,1.01.54-.31,1-.56,1.46-.82,8.33-4.8,16.66-9.6,24.99-14.4,8.9-5.13,17.81-10.25,26.69-15.4.89-.51,1.75-.82,2.79-.78,1.65.06,3.29,0,4.94.02.37,0,.74.06,1.24.11v57.96c.26.03.42.11.5.06,4.23-2.4,8.45-4.82,12.71-7.25.02-.81.04-1.53.04-2.25,0-24.45,0-48.9,0-73.35,0-.4.03-.79,0-1.19-.03-.37-.13-.73-.23-1.25-25.12,14.48-50.1,28.88-75.14,43.32ZM82.92,95.71c.71-.4,1.23-.68,1.74-.97,9.7-5.59,19.39-11.18,29.09-16.77,7.24-4.18,14.49-8.35,21.72-12.54.59-.34,1.36-.52,1.68-1.35-17.43-10.05-34.82-20.08-52.22-30.11-.57-.33-1.15-.63-1.74-.94-.05-.03-.13-.03-.19-.03-.06,0-.13,0-.32,0-17.91,10.33-35.92,20.71-53.92,31.08.11.25.13.42.22.47,17.95,10.38,35.9,20.75,53.93,31.17ZM82.96,158.59c4.63-2.67,9.18-5.29,13.74-7.92,4.51-2.6,9.01-5.19,13.52-7.79,4.56-2.63,9.13-5.25,13.69-7.89,4.54-2.64,9.14-5.19,13.54-7.86.04-.24.06-.3.06-.37,0-9.55.02-19.11.01-28.66,0-.22-.12-.45-.23-.86-6.19,3.54-12.22,7.03-18.25,10.51-5.99,3.45-11.98,6.9-17.97,10.35-6.04,3.47-12.06,6.99-18.09,10.41-.58-.32-1.04-.57-1.5-.83-10.67-6.15-21.33-12.29-32-18.44-6.45-3.71-12.89-7.44-19.34-11.14-.48-.27-.91-.79-1.58-.56-.2,1.91-.18,28,.04,29.71,18.06,10.41,36.19,20.86,54.37,31.34ZM82.82,24.13c.31.09.38.09.43.12,20.37,11.73,40.73,23.45,61.1,35.18.17.1.35.17.54.25.06.03.13.03.19.03.07,0,.13,0,.32,0,4.17-2.41,8.44-4.87,12.71-7.34-.09-.15-.1-.22-.14-.25-.15-.13-.29-.27-.46-.37-24.76-14.26-49.51-28.52-74.27-42.78-.05-.03-.13-.03-.19-.04-.07,0-.13,0-.32-.02-24.61,14.19-49.3,28.43-73.99,42.67-.23.13-.45.27-.67.42-.05.03-.1.09-.13.15-.03.04-.03.1-.08.28,4.29,2.46,8.58,5,12.96,7.43,20.73-11.95,41.37-23.84,61.99-35.73ZM28.5,151.16c.28.19.55.39.83.55,17.8,10.26,35.61,20.51,53.42,30.76.05.03.12.04.19.04.07,0,.13,0,.2-.01,8.17-4.43,52.75-30.25,54.37-31.5,0-4.78,0-9.58,0-14.39,0-.06-.01-.14-.05-.18-.04-.05-.11-.06-.28-.15-.72.1-1.33.63-1.99,1.01-16.78,9.66-33.55,19.34-50.33,29.01-.62.36-1.26.69-1.92,1.05-.75-.42-1.43-.81-2.11-1.2-9.13-5.26-18.26-10.52-27.39-15.79-7.76-4.47-15.52-8.95-23.29-13.4-.48-.27-.89-.83-1.65-.58v14.78Z"
        style="fill: #ff6d00; stroke-width: 0px;" />
      <g>
        <path
          d="M218.26,90.65c-.35,2.89-.69,5.56-.99,8.24-.78,6.83-1.55,13.66-2.31,20.49-.22,1.99-.42,3.97-.64,5.96-.06.55-.12,1.12-.26,1.65-.22.87-.83,1.34-1.7,1.47-.31.05-.64.04-.96.04-4.16,0-8.32,0-12.47,0-.32,0-.64,0-.96-.03-1-.12-1.62-.71-1.73-1.68-.05-.39-.02-.8.02-1.19.69-6.68,1.41-13.35,2.1-20.03.56-5.41,1.08-10.82,1.63-16.22.56-5.49,1.15-10.97,1.71-16.46.39-3.82.76-7.64,1.15-11.45.08-.79.15-1.6.34-2.37.25-1.04.95-1.63,2.06-1.67.32-.01.64-.01.96-.01,4.96,0,9.92,0,14.87,0,.24,0,.48.01.72,0,1.33-.06,2.08.65,2.47,1.83.22.68.42,1.38.63,2.06,3.83,12.78,7.66,25.56,11.49,38.34.21.69.44,1.36.74,2.31.33-.6.62-.96.75-1.37,2.4-7.87,4.78-15.75,7.15-23.63,1.64-5.43,3.26-10.86,4.9-16.29.92-3.03,1.21-3.25,4.36-3.25,4.48,0,8.96,0,13.43,0,.48,0,.96-.02,1.44.01,1.44.11,2.18.71,2.39,2.19.31,2.22.52,4.44.75,6.67.87,8.59,1.71,17.18,2.6,25.77.87,8.51,1.79,17.01,2.67,25.52.28,2.7.52,5.41.77,8.12.04.4.08.8.04,1.19-.08.9-.61,1.46-1.51,1.59-.47.07-.96.06-1.44.06-3.92,0-7.84.01-11.75,0-2.67-.01-3.02-.34-3.31-2.95-1.13-10.09-2.26-20.17-3.4-30.26-.17-1.48-.37-2.95-.56-4.43-.76.09-.72.65-.84,1.07-2.4,8.29-4.79,16.58-7.19,24.86-.82,2.84-1.63,5.68-2.46,8.52-.18.61-.34,1.24-.63,1.8-.42.81-1.05,1.38-2.07,1.38-3.92-.01-7.84-.01-11.75,0-1.1,0-1.8-.58-2.22-1.52-.23-.51-.35-1.06-.51-1.6-3.18-10.97-6.37-21.94-9.54-32.91-.17-.59-.26-1.22-.93-1.82ZM483.98,102.16c0,7.76,0,15.52,0,23.28,0,2.64.42,3.05,3.08,3.06,4.08.02,8.16,0,12.24,0,.48,0,.97.02,1.44-.05.99-.14,1.61-.73,1.72-1.71.09-.79.08-1.6.08-2.4,0-20.96,0-41.92,0-62.87,0-.4,0-.8,0-1.2-.05-2.34-.52-2.82-2.8-2.9-.24,0-.48,0-.72,0-3.92,0-7.84,0-11.76,0-.32,0-.64-.01-.96,0-1.64.1-2.23.7-2.31,2.4-.03.56,0,1.12,0,1.68,0,6.16,0,12.32-.01,18.48,0,.68.24,1.45-.36,2.02-2.42.3-21.46.25-23.24-.06-.43-.73-.23-1.54-.24-2.32-.02-6.08,0-12.16-.01-18.24,0-.64.03-1.28-.03-1.92-.09-1.02-.78-1.79-1.8-1.96-.63-.1-1.27-.08-1.91-.08-3.76,0-7.52,0-11.28,0-.48,0-.96-.02-1.44.02-1.12.09-1.78.62-1.98,1.72-.13.7-.12,1.43-.12,2.15,0,21.2,0,42.4,0,63.59,0,.56-.03,1.12.03,1.68.13,1.31.67,1.84,1.98,1.95.32.03.64.02.96.02,4.16,0,8.32,0,12.48,0,.48,0,.97,0,1.43-.09.96-.18,1.56-.83,1.65-1.79.06-.63.04-1.28.04-1.92,0-7.68,0-15.36.01-23.04,0-.77-.23-1.59.27-2.3,2.11-.25,21.29-.24,23.5.04.03,1.02.07,1.89.07,2.76ZM337.25,118.58c.97,2.54,1.97,5.07,2.89,7.62.55,1.54,1.47,2.34,3.19,2.31,4.4-.06,8.8-.02,13.2-.03.4,0,.81-.03,1.19-.12.87-.22,1.29-.96,1.06-1.85-.14-.54-.36-1.06-.56-1.58-8.09-20.86-16.19-41.72-24.29-62.58-.4-1.04-.84-2.07-1.31-3.09-.58-1.28-1.53-1.95-3.01-1.92-2.8.05-5.6.01-8.4.01-1.04,0-2.08,0-3.12,0-1.35,0-2.26.69-2.84,1.86-.18.36-.3.74-.44,1.11-8.35,21.62-16.7,43.24-25.04,64.86-1.06,2.73-.7,3.27,2.19,3.28,4.08.02,8.16,0,12.24,0,.4,0,.8,0,1.2-.02.87-.06,1.52-.51,1.93-1.25.27-.49.44-1.03.64-1.55.92-2.39,1.83-4.78,2.76-7.16.2-.5.48-.98.71-1.44h25.19c.27.63.47,1.06.64,1.51ZM317.05,100.52c2.39-6.67,4.25-13.51,6.87-20.49,1.19,2.52,1.76,4.88,2.57,7.15.83,2.33,1.6,4.68,2.35,7.03.75,2.34,1.69,4.62,2.21,6.89-.1.23-.12.32-.17.37-.06.05-.14.09-.22.09-4.15.03-8.29.06-12.44.08-.39,0-.78-.07-1.24-.12.02-.38-.03-.71.07-.99ZM405.54,111.07c-2.04.39-4.08.74-6.18.69-7.23-.16-12.51-3.48-15.77-9.88-2.43-4.77-2.74-9.8-1.25-14.92,1.12-3.86,3.15-7.19,6.43-9.58,6.16-4.5,12.69-4.7,19.45-1.43.86.42,1.64,1,2.47,1.47,1.2.67,1.82.56,2.73-.46.26-.3.49-.63.72-.96,2.19-3.15,4.39-6.29,6.56-9.46,1.47-2.14,1.32-2.84-.8-4.27-.07-.04-.14-.08-.21-.12-8.67-5.51-18.09-7.15-28.04-4.86-19.13,4.41-31.16,22.61-27.94,41.97,2.83,17.01,18.02,30.04,35.26,30.25,3.77.05,7.51-.28,11.19-1.05,3.93-.83,7.69-2.09,11.21-4.08,1.82-1.03,2.55-2.32,2.51-4.44-.11-6.63-.04-13.27-.04-19.9,0-.4.02-.8,0-1.2-.1-1.69-.83-2.41-2.55-2.53-.32-.02-.64,0-.96,0-3.6,0-7.19,0-10.79,0-.48,0-.96-.01-1.44.05-.97.12-1.58.72-1.7,1.71-.07.55-.05,1.12-.05,1.68,0,2.96,0,5.92,0,8.87,0,.71-.05,1.42-.07,2.09-.3.17-.5.34-.72.38ZM549.67,55.53c0-2.72.02-5.44-.01-8.16,0-.79-.06-1.6-.23-2.38-.27-1.19-.98-1.76-2.17-1.88-.48-.05-.96-.02-1.44-.02-3.76,0-7.52,0-11.27,0-.4,0-.8-.02-1.2,0-1.5.09-2.14.7-2.25,2.23-.06.8-.03,1.6-.03,2.4,0,24.95,0,49.89,0,74.84,0,.8-.03,1.6,0,2.4.14,4.52-5.1,7.38-8.95,4.92-.81-.51-1.54-1.14-2.31-1.7-1.35-1-2.16-1.01-3.43.06-.85.72-1.64,1.53-2.45,2.29-1.87,1.75-3.76,3.48-5.59,5.26-1.25,1.22-1.28,2.15-.25,3.59,1.17,1.64,2.59,3.04,4.2,4.25,10.93,8.25,27.54,5.25,34.7-7.73,1.94-3.52,2.7-7.31,2.69-11.3-.02-12.63,0-25.27,0-37.9,0-10.39,0-20.79,0-31.18Z"
          style="fill: #4B4D4F; stroke-width: 0px;" />
        <path
          d="M585.51,98.52c0,8.23,0,16.46,0,24.69,0,.72.02,1.44-.04,2.16-.15,1.58-.9,2.49-2.41,2.9-.53.14-1.1.19-1.65.2-3.44.02-6.87,0-10.31,0-.32,0-.64,0-.96-.04-1.75-.23-2.73-1.19-2.94-2.94-.07-.55-.05-1.12-.05-1.68,0-17.18,0-34.36,0-51.54,0-.48-.02-.96.03-1.44.23-2.04,1.4-3.17,3.46-3.25,1.84-.06,3.67-.02,5.51-.02,1.76,0,3.52,0,5.27,0,1.19,0,2.16.48,2.99,1.3.65.64,1.07,1.38,1.08,2.32,0,.64.01,1.28.01,1.92,0,8.47,0,16.94,0,25.41ZM576.33,43.11c-5.03,0-9.15,4.08-9.2,9.11-.06,5.15,4.08,9.38,9.21,9.34,5.76-.05,9.3-4.81,9.18-9.11.18-5.01-4-9.34-9.19-9.34Z"
          style="fill: #ff6d00; stroke-width: 0px;" />
      </g>
    </g>
  </g>
</svg>